<svg xmlns="http://www.w3.org/2000/svg" width="237" height="236" viewBox="0 0 62.529 62.233"><g fill="none"><g stroke-width="2"><g stroke="#ffffff"><path d="M6 1L1 6m20 0l-5 5m0-10L1 16"/><path d="M11 1L1 11"/><path d="M21 1L1 21m10-5L1 26m10-5L1 31m10-5L1 36m10-5L1 41m10-5L1 46m10-5L1 51m10-5L1 56m0 5l10-10m0 5l-5 5"/></g><path d="M1 1h20v10H11v50H1V1" stroke="#ffffff" stroke-linecap="square"/><path d="M26 31.29l5-5" stroke="#ffffff"/></g><g stroke-width="2"><path d="M31 36.3l5-5m0-5l-10 10" stroke="#ffffff"/><path d="M26 26.29v10h10v-10z" stroke="#ffffff"/></g><g stroke-width="2" stroke="#ffffff"><path d="M51.53 31.233l10-10m-20-15l5-5m-5 10l10-10m-5 10l10-10m-5 10l10-10m0 5l-10 10m0 5l10-10m0 5l-10 10m10 0l-10 10m10-5l-10 10m10-5l-10 10m0 5l10-10m-10 15l10-10m0 5l-10 10m5 0l5-5"/><path d="M61.53 1.233h-20v10h10v50h10v-60" stroke-linecap="square"/></g></g></svg>